<svg width="25" height="16" viewBox="0 0 25 16" fill="none" xmlns="http://www.w3.org/2000/svg">
<path d="M11.4921 10.8053C12.4973 10.1361 13.2605 9.16122 13.6687 8.02475C14.077 6.88829 14.1087 5.65061 13.7591 4.49474C13.4095 3.33887 12.6973 2.32618 11.7276 1.60642C10.758 0.88666 9.5825 0.498047 8.37492 0.498047C7.16735 0.498047 5.99184 0.88666 5.02221 1.60642C4.05258 2.32618 3.34032 3.33887 2.99076 4.49474C2.6412 5.65061 2.67288 6.88829 3.08114 8.02475C3.4894 9.16122 4.25255 10.1361 5.25774 10.8053C3.43945 11.4755 1.88659 12.7156 0.830862 14.3406C0.775377 14.4231 0.736837 14.5158 0.717482 14.6133C0.698127 14.7108 0.698344 14.8111 0.718119 14.9085C0.737895 15.0059 0.776835 15.0984 0.832676 15.1807C0.888516 15.2629 0.960144 15.3332 1.0434 15.3875C1.12665 15.4418 1.21986 15.479 1.31762 15.497C1.41538 15.5149 1.51573 15.5133 1.61285 15.4921C1.70996 15.4709 1.8019 15.4307 1.88332 15.3737C1.96473 15.3167 2.03401 15.244 2.08711 15.16C2.7681 14.1126 3.69995 13.2519 4.79802 12.6561C5.8961 12.0603 7.12562 11.7482 8.37492 11.7482C9.62423 11.7482 10.8538 12.0603 11.9518 12.6561C13.0499 13.2519 13.9817 14.1126 14.6627 15.16C14.7727 15.3235 14.9427 15.4371 15.1358 15.4763C15.3289 15.5156 15.5297 15.4772 15.6947 15.3695C15.8598 15.2619 15.9758 15.0936 16.0178 14.9011C16.0598 14.7085 16.0243 14.5072 15.919 14.3406C14.8633 12.7156 13.3104 11.4755 11.4921 10.8053ZM4.24992 6.12533C4.24992 5.30948 4.49185 4.51195 4.94511 3.8336C5.39837 3.15525 6.04261 2.62654 6.79636 2.31433C7.5501 2.00212 8.3795 1.92043 9.17967 2.07959C9.97984 2.23875 10.7148 2.63162 11.2917 3.20851C11.8686 3.78541 12.2615 4.52041 12.4207 5.32058C12.5798 6.12075 12.4981 6.95015 12.1859 7.7039C11.8737 8.45764 11.345 9.10188 10.6667 9.55514C9.9883 10.0084 9.19077 10.2503 8.37492 10.2503C7.28129 10.2491 6.2328 9.81409 5.45948 9.04077C4.68616 8.26746 4.25117 7.21897 4.24992 6.12533ZM23.9506 15.3785C23.784 15.4871 23.581 15.5251 23.3864 15.4841C23.1918 15.4432 23.0214 15.3266 22.9127 15.16C22.2326 14.112 21.3008 13.2509 20.2025 12.6554C19.1042 12.0598 17.8743 11.7487 16.6249 11.7503C16.426 11.7503 16.2352 11.6713 16.0946 11.5307C15.9539 11.39 15.8749 11.1992 15.8749 11.0003C15.8749 10.8014 15.9539 10.6107 16.0946 10.47C16.2352 10.3293 16.426 10.2503 16.6249 10.2503C17.2324 10.2498 17.8322 10.115 18.3816 9.85575C18.931 9.59648 19.4163 9.21907 19.8029 8.75049C20.1895 8.28191 20.4678 7.73373 20.618 7.14512C20.7682 6.5565 20.7865 5.94198 20.6716 5.34547C20.5568 4.74895 20.3116 4.18516 19.9536 3.69439C19.5956 3.20361 19.1337 2.79796 18.6007 2.50642C18.0678 2.21488 17.477 2.04465 16.8707 2.00789C16.2643 1.97113 15.6573 2.06875 15.0931 2.29377C15.001 2.33354 14.902 2.35447 14.8018 2.35531C14.7016 2.35616 14.6022 2.33691 14.5095 2.2987C14.4169 2.26049 14.3328 2.20409 14.2623 2.13284C14.1918 2.0616 14.1363 1.97694 14.0991 1.88388C14.0619 1.79082 14.0437 1.69124 14.0456 1.59103C14.0475 1.49082 14.0695 1.39201 14.1102 1.30044C14.151 1.20887 14.2097 1.12639 14.2828 1.05788C14.356 0.989376 14.4421 0.936228 14.5362 0.901579C15.8275 0.386564 17.2639 0.368031 18.5681 0.849554C19.8723 1.33108 20.952 2.27854 21.5989 3.50916C22.2458 4.73978 22.414 6.16636 22.0711 7.51369C21.7283 8.86102 20.8986 10.0336 19.7421 10.8053C21.5604 11.4755 23.1133 12.7156 24.169 14.3406C24.2776 14.5072 24.3156 14.7102 24.2747 14.9048C24.2337 15.0994 24.1171 15.2698 23.9506 15.3785Z" fill="#EAECEE"/>
</svg>
