<svg width="15" height="16" viewBox="0 0 15 16" fill="none" xmlns="http://www.w3.org/2000/svg">
<path d="M15 9.875V14.25C15 14.5815 14.8683 14.8995 14.6339 15.1339C14.3995 15.3683 14.0815 15.5 13.75 15.5H1.25C0.918479 15.5 0.600537 15.3683 0.366116 15.1339C0.131696 14.8995 0 14.5815 0 14.25V9.875C0 9.70924 0.0658481 9.55027 0.183058 9.43306C0.300269 9.31585 0.45924 9.25 0.625 9.25C0.79076 9.25 0.949731 9.31585 1.06694 9.43306C1.18415 9.55027 1.25 9.70924 1.25 9.875V14.25H13.75V9.875C13.75 9.70924 13.8158 9.55027 13.9331 9.43306C14.0503 9.31585 14.2092 9.25 14.375 9.25C14.5408 9.25 14.6997 9.31585 14.8169 9.43306C14.9342 9.55027 15 9.70924 15 9.875ZM7.05781 10.3172C7.11586 10.3753 7.18479 10.4214 7.26066 10.4529C7.33654 10.4843 7.41787 10.5005 7.5 10.5005C7.58213 10.5005 7.66346 10.4843 7.73934 10.4529C7.81521 10.4214 7.88414 10.3753 7.94219 10.3172L11.0672 7.19219C11.1253 7.13412 11.1713 7.06518 11.2027 6.98931C11.2342 6.91344 11.2503 6.83212 11.2503 6.75C11.2503 6.66788 11.2342 6.58656 11.2027 6.51069C11.1713 6.43482 11.1253 6.36588 11.0672 6.30781C11.0091 6.24974 10.9402 6.20368 10.8643 6.17225C10.7884 6.14083 10.7071 6.12465 10.625 6.12465C10.5429 6.12465 10.4616 6.14083 10.3857 6.17225C10.3098 6.20368 10.2409 6.24974 10.1828 6.30781L8.125 8.36641V1.125C8.125 0.95924 8.05915 0.800269 7.94194 0.683058C7.82473 0.565848 7.66576 0.5 7.5 0.5C7.33424 0.5 7.17527 0.565848 7.05806 0.683058C6.94085 0.800269 6.875 0.95924 6.875 1.125V8.36641L4.81719 6.30781C4.69991 6.19054 4.54085 6.12465 4.375 6.12465C4.20915 6.12465 4.05009 6.19054 3.93281 6.30781C3.81554 6.42509 3.74965 6.58415 3.74965 6.75C3.74965 6.91585 3.81554 7.07491 3.93281 7.19219L7.05781 10.3172Z" fill="white"/>
</svg>
