<svg width="24" height="24" viewBox="0 0 24 24" fill="none" xmlns="http://www.w3.org/2000/svg">
<path d="M20.9883 20.0625L18.9258 3.5625C18.8801 3.19993 18.7036 2.8665 18.4295 2.62483C18.1554 2.38316 17.8025 2.24987 17.437 2.25H6.56204C6.1966 2.24987 5.84368 2.38316 5.56956 2.62483C5.29544 2.8665 5.11897 3.19993 5.07329 3.5625L3.01079 20.0625C2.98418 20.2737 3.00283 20.4881 3.06548 20.6915C3.12814 20.895 3.23337 21.0827 3.37419 21.2423C3.51501 21.402 3.68819 21.5298 3.88222 21.6173C4.07625 21.7048 4.28668 21.7501 4.49954 21.75H8.31423C8.64781 21.7501 8.97189 21.6389 9.23523 21.4342C9.49857 21.2294 9.68614 20.9427 9.76829 20.6194L11.9995 11.9944L14.2299 20.6138C14.311 20.9383 14.4982 21.2263 14.7618 21.4322C15.0255 21.6381 15.3504 21.7499 15.6849 21.75H19.4995C19.7124 21.7501 19.9228 21.7048 20.1169 21.6173C20.3109 21.5298 20.4841 21.402 20.6249 21.2423C20.7657 21.0827 20.8709 20.895 20.9336 20.6915C20.9963 20.4881 21.0149 20.2737 20.9883 20.0625ZM18.0839 8.925C17.5473 8.80183 17.0548 8.53397 16.6598 8.15052C16.2647 7.76706 15.9823 7.28268 15.8433 6.75H17.812L18.0839 8.925ZM17.437 3.75L17.6245 5.25H6.37454L6.56204 3.75H17.437ZM6.18704 6.75H8.15579C8.01673 7.28268 7.73435 7.76706 7.33932 8.15052C6.9443 8.53397 6.45174 8.80183 5.91516 8.925L6.18704 6.75ZM8.31423 20.25H4.49954L5.71829 10.4747C6.69514 10.371 7.61136 9.95099 8.32755 9.27864C9.04374 8.60628 9.52068 7.71836 9.68579 6.75H11.2495V8.90625L8.31423 20.25ZM15.683 20.2444L12.7495 8.90625V6.75H14.3133C14.4784 7.71836 14.9553 8.60628 15.6715 9.27864C16.3877 9.95099 17.3039 10.371 18.2808 10.4747L19.4995 20.25L15.683 20.2444Z" fill="white"/>
</svg>
