<svg width="13" height="12" viewBox="0 0 13 12" fill="none" xmlns="http://www.w3.org/2000/svg">
<path d="M12.5 6C12.5 6.13261 12.4473 6.25979 12.3536 6.35355C12.2598 6.44732 12.1326 6.5 12 6.5H7V11.5C7 11.6326 6.94732 11.7598 6.85355 11.8536C6.75979 11.9473 6.63261 12 6.5 12C6.36739 12 6.24021 11.9473 6.14645 11.8536C6.05268 11.7598 6 11.6326 6 11.5V6.5H1C0.867392 6.5 0.740215 6.44732 0.646447 6.35355C0.552679 6.25979 0.5 6.13261 0.5 6C0.5 5.86739 0.552679 5.74021 0.646447 5.64645C0.740215 5.55268 0.867392 5.5 1 5.5H6V0.5C6 0.367392 6.05268 0.240215 6.14645 0.146447C6.24021 0.0526785 6.36739 0 6.5 0C6.63261 0 6.75979 0.0526785 6.85355 0.146447C6.94732 0.240215 7 0.367392 7 0.5V5.5H12C12.1326 5.5 12.2598 5.55268 12.3536 5.64645C12.4473 5.74021 12.5 5.86739 12.5 6Z" fill="#083D77"/>
</svg>
