<svg width="23" height="19" viewBox="0 0 23 19" fill="none" xmlns="http://www.w3.org/2000/svg">
<path d="M22.0934 11.2244C21.8144 11.0096 21.4895 10.8622 21.1442 10.7934C20.7988 10.7246 20.4422 10.7364 20.1022 10.8278L16.1797 11.7297C16.2709 11.3442 16.2738 10.943 16.1879 10.5563C16.1021 10.1695 15.9298 9.80721 15.6841 9.4965C15.4383 9.18579 15.1254 8.93474 14.7688 8.76216C14.4122 8.58958 14.0212 8.49996 13.625 8.5H8.93188C8.53775 8.49901 8.14733 8.57614 7.78319 8.72691C7.41904 8.87769 7.08838 9.09913 6.81031 9.37844L4.68969 11.5H2C1.60218 11.5 1.22064 11.658 0.93934 11.9393C0.658035 12.2206 0.5 12.6022 0.5 13L0.5 16.75C0.5 17.1478 0.658035 17.5294 0.93934 17.8107C1.22064 18.092 1.60218 18.25 2 18.25H11.75C11.8113 18.25 11.8724 18.2425 11.9319 18.2275L17.9319 16.7275C17.9701 16.7184 18.0075 16.7058 18.0434 16.69L21.6875 15.1394L21.7288 15.1206C22.079 14.9456 22.3789 14.6843 22.6002 14.3614C22.8215 14.0385 22.957 13.6645 22.9939 13.2747C23.0307 12.8849 22.9678 12.4922 22.8109 12.1335C22.654 11.7748 22.4084 11.4619 22.0972 11.2244H22.0934ZM2 13H4.25V16.75H2V13ZM21.0716 13.7697L17.5091 15.2866L11.6562 16.75H5.75V12.5603L7.87156 10.4397C8.01035 10.2998 8.17555 10.1889 8.35758 10.1134C8.53961 10.0379 8.73482 9.99937 8.93188 10H13.625C13.9234 10 14.2095 10.1185 14.4205 10.3295C14.6315 10.5405 14.75 10.8266 14.75 11.125C14.75 11.4234 14.6315 11.7095 14.4205 11.9205C14.2095 12.1315 13.9234 12.25 13.625 12.25H11C10.8011 12.25 10.6103 12.329 10.4697 12.4697C10.329 12.6103 10.25 12.8011 10.25 13C10.25 13.1989 10.329 13.3897 10.4697 13.5303C10.6103 13.671 10.8011 13.75 11 13.75H14C14.0565 13.7498 14.1127 13.7436 14.1678 13.7313L20.4491 12.2866L20.4781 12.2791C20.6699 12.2258 20.8745 12.2454 21.0527 12.334C21.2309 12.4226 21.37 12.5739 21.4433 12.7589C21.5167 12.9439 21.5189 13.1495 21.4498 13.3361C21.3806 13.5227 21.2449 13.6771 21.0687 13.7697H21.0716ZM15.875 7C16.0603 7.00021 16.2453 6.98516 16.4281 6.955C16.6338 7.56582 17.01 8.10499 17.5124 8.50876C18.0147 8.91253 18.6222 9.16401 19.263 9.23348C19.9037 9.30295 20.551 9.18749 21.1282 8.90077C21.7054 8.61404 22.1884 8.16803 22.5202 7.61547C22.852 7.06291 23.0186 6.42691 23.0004 5.78266C22.9821 5.1384 22.7798 4.51284 22.4173 3.97993C22.0548 3.44703 21.5473 3.02905 20.9548 2.77543C20.3623 2.52181 19.7096 2.44315 19.0737 2.54875C18.8757 1.96023 18.5192 1.43775 18.0434 1.03879C17.5676 0.639839 16.9909 0.379884 16.3769 0.287536C15.7629 0.195187 15.1353 0.274025 14.5631 0.515374C13.991 0.756723 13.4966 1.15123 13.1342 1.65547C12.7719 2.15971 12.5556 2.75414 12.5093 3.37335C12.463 3.99256 12.5885 4.61254 12.8718 5.16506C13.1552 5.71759 13.5854 6.18123 14.1153 6.50497C14.6452 6.82872 15.2541 7.00001 15.875 7ZM21.5 5.875C21.5 6.24584 21.39 6.60835 21.184 6.9167C20.978 7.22504 20.6851 7.46536 20.3425 7.60728C19.9999 7.74919 19.6229 7.78632 19.2592 7.71397C18.8955 7.64163 18.5614 7.46305 18.2992 7.20083C18.037 6.9386 17.8584 6.60451 17.786 6.2408C17.7137 5.87708 17.7508 5.50008 17.8927 5.15747C18.0346 4.81486 18.275 4.52202 18.5833 4.316C18.8916 4.10997 19.2542 4 19.625 4C20.1223 4 20.5992 4.19755 20.9508 4.54918C21.3025 4.90081 21.5 5.37772 21.5 5.875ZM15.875 1.75C16.284 1.75021 16.6818 1.88416 17.0076 2.13145C17.3334 2.37874 17.5695 2.72579 17.6797 3.11969C17.2956 3.38997 16.9721 3.73744 16.7299 4.13989C16.4878 4.54234 16.3323 4.9909 16.2734 5.45688C16.1425 5.48515 16.009 5.49961 15.875 5.5C15.3777 5.5 14.9008 5.30246 14.5492 4.95083C14.1975 4.5992 14 4.12228 14 3.625C14 3.12772 14.1975 2.65081 14.5492 2.29918C14.9008 1.94755 15.3777 1.75 15.875 1.75Z" fill="white"/>
</svg>
